<?xml version="1.0" encoding="UTF-8" standalone="no"?>
<!-- Created with Inkscape (http://www.inkscape.org/) -->

<svg
   width="210mm"
   height="297mm"
   viewBox="0 0 210 297"
   version="1.1"
   id="svg867"
   inkscape:version="1.1.1 (3bf5ae0d25, 2021-09-20)"
   sodipodi:docname="intromech_logo_v3.svg"
   xmlns:inkscape="http://www.inkscape.org/namespaces/inkscape"
   xmlns:sodipodi="http://sodipodi.sourceforge.net/DTD/sodipodi-0.dtd"
   xmlns="http://www.w3.org/2000/svg"
   xmlns:svg="http://www.w3.org/2000/svg">
  <sodipodi:namedview
     id="namedview869"
     pagecolor="#ffffff"
     bordercolor="#666666"
     borderopacity="1.0"
     inkscape:pageshadow="2"
     inkscape:pageopacity="0.0"
     inkscape:pagecheckerboard="0"
     inkscape:document-units="px"
     showgrid="false"
     showborder="false"
     showguides="true"
     inkscape:guide-bbox="true"
     inkscape:snap-smooth-nodes="true"
     inkscape:snap-midpoints="true"
     inkscape:zoom="0.22645918"
     inkscape:cx="267.15632"
     inkscape:cy="-686.65797"
     inkscape:window-width="1920"
     inkscape:window-height="1017"
     inkscape:window-x="-8"
     inkscape:window-y="-8"
     inkscape:window-maximized="1"
     inkscape:current-layer="g22983">
    <sodipodi:guide
       position="-79.723317,122.28332"
       orientation="0,-1"
       id="guide3601" />
  </sodipodi:namedview>
  <defs
     id="defs864" />
  <g
     inkscape:label="Layer 1"
     inkscape:groupmode="layer"
     id="layer1">
    <g
       id="g22983">
      <path
         id="path1501"
         style="fill:#000000;stroke:#000000;stroke-width:2.64583;stroke-linecap:butt;stroke-linejoin:miter;stroke-miterlimit:4;stroke-dasharray:none;stroke-opacity:1"
         d="m -577.21588,-206.9831 -27.52737,-15.89293 m 27.52737,15.89293 -2.12925,35.47383 13.76369,7.94647 15.89293,-27.52736 z" />
      <path
         id="path1503"
         style="fill:#000000;stroke:#000000;stroke-width:2.64583;stroke-linecap:butt;stroke-linejoin:miter;stroke-miterlimit:4;stroke-dasharray:none;stroke-opacity:1"
         d="m -462.84789,-206.9831 27.52737,-15.89293 m -27.52737,15.89293 2.12924,35.47383 -13.76368,7.94647 -15.89293,-27.52737 z" />
      <g
         id="g997"
         transform="translate(-160.65776,-5.18195)">
        <path
           id="path1062"
           style="fill:#000000;fill-opacity:1;stroke:#000000;stroke-width:0.264583;stroke-miterlimit:4;stroke-dasharray:none"
           d="m 8.065098,116.10174 v 31.78566 31.78617 H 39.851269 V 147.8874 116.10174 Z" />
        <path
           id="path1068"
           style="fill:#000000;fill-opacity:1;stroke:#000000;stroke-width:0.264583;stroke-miterlimit:4;stroke-dasharray:none"
           d="M 8.065336,94.666916 V 106.48138 H 39.851209 V 94.666916 Z" />
        <path
           id="path1154"
           style="fill:#000000;fill-opacity:1;stroke:#000000;stroke-width:0.264583;stroke-miterlimit:4;stroke-dasharray:none"
           d="m 16.01175,79.302505 v 9.620401 h 15.892939 v -9.620401 z" />
        <path
           id="rect1418"
           style="fill:#000000;stroke:#000000;stroke-width:0.264583;stroke-linecap:round;stroke-miterlimit:4;stroke-dasharray:none;stop-color:#000000"
           d="m 22.548359,69.479216 c 0,-0.939905 2.81972,-0.939905 2.81972,0 v 9.823292 h -2.81972 z"
           sodipodi:nodetypes="ssccs" />
        <path
           id="path3967"
           style="fill:#000000;stroke:#000000;stroke-width:0.264583px;stroke-linecap:butt;stroke-linejoin:miter;stroke-opacity:1"
           d="M -33.225721,70.827512 -60.753089,54.934579 m 27.527368,15.892933 -2.129247,35.473828 13.763685,7.94647 15.892928,-27.527364 z" />
        <path
           id="path3969"
           style="fill:#000000;stroke:#000000;stroke-width:0.264583px;stroke-linecap:butt;stroke-linejoin:miter;stroke-opacity:1"
           d="M 81.142269,70.827512 108.66964,54.934576 m -27.527371,15.892936 2.12924,35.473828 -13.76368,7.94647 -15.89293,-27.527367 z" />
        <path
           id="path832"
           style="fill:#000000;fill-opacity:1;stroke:#000000;stroke-width:0.264583;stroke-miterlimit:4;stroke-dasharray:none"
           d="m 8.065098,116.10174 v 31.78566 31.78617 H 39.851269 V 147.8874 116.10174 Z" />
        <path
           id="path834"
           style="fill:#000000;fill-opacity:1;stroke:#000000;stroke-width:0.264583;stroke-miterlimit:4;stroke-dasharray:none"
           d="M 8.065336,94.666916 V 106.48138 H 39.851209 V 94.666916 Z" />
        <path
           id="path836"
           style="fill:#000000;fill-opacity:1;stroke:#000000;stroke-width:0.264583;stroke-miterlimit:4;stroke-dasharray:none"
           d="m 16.01175,79.302505 v 9.620401 h 15.892939 v -9.620401 z" />
        <path
           id="path838"
           style="fill:#000000;stroke:#000000;stroke-width:0.264583;stroke-linecap:round;stroke-miterlimit:4;stroke-dasharray:none;stop-color:#000000"
           d="m 22.548359,69.479216 c 0,-0.939905 2.81972,-0.939905 2.81972,0 v 9.823292 h -2.81972 z"
           sodipodi:nodetypes="ssccs" />
        <path
           id="path840"
           style="fill:#000000;stroke:#000000;stroke-width:0.264583px;stroke-linecap:butt;stroke-linejoin:miter;stroke-opacity:1"
           d="M -33.225721,70.827512 -60.753089,54.934579 m 27.527368,15.892933 -2.129247,35.473828 13.763685,7.94647 15.892928,-27.527364 z" />
        <path
           id="path842"
           style="fill:#000000;stroke:#000000;stroke-width:0.264583px;stroke-linecap:butt;stroke-linejoin:miter;stroke-opacity:1"
           d="M 81.142269,70.827512 108.66964,54.934576 m -27.527371,15.892936 2.12924,35.473828 -13.76368,7.94647 -15.89293,-27.527367 z" />
      </g>
      <text
         xml:space="preserve"
         style="font-style:normal;font-weight:normal;font-size:71.7464px;line-height:0;font-family:sans-serif;fill:#000000;fill-opacity:1;stroke:none;stroke-width:0.264583"
         x="-116.79049"
         y="174.6246"
         id="text2079"><tspan
           sodipodi:role="line"
           id="tspan2077"
           style="font-style:normal;font-variant:normal;font-weight:bold;font-stretch:normal;line-height:0px;font-family:oswald;-inkscape-font-specification:'oswald Bold';stroke-width:0.264583"
           x="-116.79049"
           y="174.6246">INTROMECH</tspan></text>
      <g
         id="g24040"
         inkscape:export-filename="F:\misbah\projects\intromech_brand\logos\black_full_png.png"
         inkscape:export-xdpi="96"
         inkscape:export-ydpi="96"
         transform="translate(-16.522947,-66.091796)">
        <g
           id="g25389">
          <g
             id="g23965"
             transform="translate(-381.68011,-140.44507)">
            <path
               id="path23911"
               style="fill:#000000;fill-opacity:1;stroke:#000000;stroke-width:0.264583;stroke-miterlimit:4;stroke-dasharray:none"
               d="m -152.59266,-139.40288 v 31.78566 31.78617 h 31.78617 v -31.78617 -31.78566 z" />
            <path
               id="path23913"
               style="fill:#000000;fill-opacity:1;stroke:#000000;stroke-width:0.264583;stroke-miterlimit:4;stroke-dasharray:none"
               d="m -152.59242,-160.8377 v 11.81446 h 31.78587 v -11.81446 z" />
            <path
               id="path23915"
               style="fill:#000000;fill-opacity:1;stroke:#000000;stroke-width:0.264583;stroke-miterlimit:4;stroke-dasharray:none"
               d="m -144.64601,-176.20211 v 9.6204 h 15.89294 v -9.6204 z" />
            <path
               id="path23917"
               style="fill:#000000;stroke:#000000;stroke-width:0.264583;stroke-linecap:round;stroke-miterlimit:4;stroke-dasharray:none;stop-color:#000000"
               d="m -138.1094,-186.0254 c 0,-0.93991 2.81972,-0.93991 2.81972,0 v 9.82329 h -2.81972 z"
               sodipodi:nodetypes="ssccs" />
            <path
               id="path23919"
               style="fill:#000000;stroke:#000000;stroke-width:0.264583px;stroke-linecap:butt;stroke-linejoin:miter;stroke-opacity:1"
               d="m -193.88348,-184.67711 -27.52737,-15.89293 m 27.52737,15.89293 -2.12925,35.47383 13.76369,7.94647 15.89293,-27.52736 z" />
            <path
               id="path23921"
               style="fill:#000000;stroke:#000000;stroke-width:0.264583px;stroke-linecap:butt;stroke-linejoin:miter;stroke-opacity:1"
               d="m -79.515491,-184.67711 27.527371,-15.89293 m -27.527371,15.89293 2.12924,35.47383 -13.76368,7.94647 -15.892929,-27.52737 z" />
            <path
               id="path23923"
               style="fill:#000000;fill-opacity:1;stroke:#000000;stroke-width:0.264583;stroke-miterlimit:4;stroke-dasharray:none"
               d="m -152.59266,-139.40288 v 31.78566 31.78617 h 31.78617 v -31.78617 -31.78566 z" />
            <path
               id="path23925"
               style="fill:#000000;fill-opacity:1;stroke:#000000;stroke-width:0.264583;stroke-miterlimit:4;stroke-dasharray:none"
               d="m -152.59242,-160.8377 v 11.81446 h 31.78587 v -11.81446 z" />
            <path
               id="path23927"
               style="fill:#000000;fill-opacity:1;stroke:#000000;stroke-width:0.264583;stroke-miterlimit:4;stroke-dasharray:none"
               d="m -144.64601,-176.20211 v 9.6204 h 15.89294 v -9.6204 z" />
            <path
               id="path23929"
               style="fill:#000000;stroke:#000000;stroke-width:0.264583;stroke-linecap:round;stroke-miterlimit:4;stroke-dasharray:none;stop-color:#000000"
               d="m -138.1094,-186.0254 c 0,-0.93991 2.81972,-0.93991 2.81972,0 v 9.82329 h -2.81972 z"
               sodipodi:nodetypes="ssccs" />
            <path
               id="path23931"
               style="fill:#000000;stroke:#000000;stroke-width:2.64583;stroke-linecap:butt;stroke-linejoin:miter;stroke-miterlimit:4;stroke-dasharray:none;stroke-opacity:1"
               d="m -193.88348,-184.67711 -27.52737,-15.89293 m 27.52737,15.89293 -2.12925,35.47383 13.76369,7.94647 15.89293,-27.52736 z" />
            <path
               id="path23933"
               style="fill:#000000;stroke:#000000;stroke-width:2.64583;stroke-linecap:butt;stroke-linejoin:miter;stroke-miterlimit:4;stroke-dasharray:none;stroke-opacity:1"
               d="m -79.515491,-184.67711 27.527371,-15.89293 m -27.527371,15.89293 2.12924,35.47383 -13.76368,7.94647 -15.892929,-27.52737 z" />
          </g>
          <text
             xml:space="preserve"
             style="font-style:normal;font-weight:normal;font-size:71.7464px;line-height:0;font-family:sans-serif;fill:#000000;fill-opacity:1;stroke:none;stroke-width:0.264583"
             x="-498.47061"
             y="-216.14314"
             id="text23939"><tspan
               sodipodi:role="line"
               id="tspan23937"
               style="font-style:normal;font-variant:normal;font-weight:bold;font-stretch:normal;line-height:0px;font-family:oswald;-inkscape-font-specification:'oswald Bold';stroke-width:0.264583"
               x="-498.47061"
               y="-216.14314">NTROMECH</tspan></text>
        </g>
      </g>
      <g
         id="g24023"
         transform="translate(-391.59388,-389.11545)"
         inkscape:export-filename="F:\misbah\projects\intromech_brand\logos\black_png.png"
         inkscape:export-xdpi="96"
         inkscape:export-ydpi="96">
        <path
           id="path23999"
           style="fill:#000000;fill-opacity:1;stroke:#000000;stroke-width:0.264583;stroke-miterlimit:4;stroke-dasharray:none"
           d="m -152.59266,-139.40288 v 31.78566 31.78617 h 31.78617 v -31.78617 -31.78566 z" />
        <path
           id="path24001"
           style="fill:#000000;fill-opacity:1;stroke:#000000;stroke-width:0.264583;stroke-miterlimit:4;stroke-dasharray:none"
           d="m -152.59242,-160.8377 v 11.81446 h 31.78587 v -11.81446 z" />
        <path
           id="path24003"
           style="fill:#000000;fill-opacity:1;stroke:#000000;stroke-width:0.264583;stroke-miterlimit:4;stroke-dasharray:none"
           d="m -144.64601,-176.20211 v 9.6204 h 15.89294 v -9.6204 z" />
        <path
           id="path24005"
           style="fill:#000000;stroke:#000000;stroke-width:0.264583;stroke-linecap:round;stroke-miterlimit:4;stroke-dasharray:none;stop-color:#000000"
           d="m -138.1094,-186.0254 c 0,-0.93991 2.81972,-0.93991 2.81972,0 v 9.82329 h -2.81972 z"
           sodipodi:nodetypes="ssccs" />
        <path
           id="path24007"
           style="fill:#000000;stroke:#000000;stroke-width:0.264583px;stroke-linecap:butt;stroke-linejoin:miter;stroke-opacity:1"
           d="m -193.88348,-184.67711 -27.52737,-15.89293 m 27.52737,15.89293 -2.12925,35.47383 13.76369,7.94647 15.89293,-27.52736 z" />
        <path
           id="path24009"
           style="fill:#000000;stroke:#000000;stroke-width:0.264583px;stroke-linecap:butt;stroke-linejoin:miter;stroke-opacity:1"
           d="m -79.515491,-184.67711 27.527371,-15.89293 m -27.527371,15.89293 2.12924,35.47383 -13.76368,7.94647 -15.892929,-27.52737 z" />
        <path
           id="path24011"
           style="fill:#000000;fill-opacity:1;stroke:#000000;stroke-width:0.264583;stroke-miterlimit:4;stroke-dasharray:none"
           d="m -152.59266,-139.40288 v 31.78566 31.78617 h 31.78617 v -31.78617 -31.78566 z" />
        <path
           id="path24013"
           style="fill:#000000;fill-opacity:1;stroke:#000000;stroke-width:0.264583;stroke-miterlimit:4;stroke-dasharray:none"
           d="m -152.59242,-160.8377 v 11.81446 h 31.78587 v -11.81446 z" />
        <path
           id="path24015"
           style="fill:#000000;fill-opacity:1;stroke:#000000;stroke-width:0.264583;stroke-miterlimit:4;stroke-dasharray:none"
           d="m -144.64601,-176.20211 v 9.6204 h 15.89294 v -9.6204 z" />
        <path
           id="path24017"
           style="fill:#000000;stroke:#000000;stroke-width:0.264583;stroke-linecap:round;stroke-miterlimit:4;stroke-dasharray:none;stop-color:#000000"
           d="m -138.1094,-186.0254 c 0,-0.93991 2.81972,-0.93991 2.81972,0 v 9.82329 h -2.81972 z"
           sodipodi:nodetypes="ssccs" />
        <path
           id="path24019"
           style="fill:#000000;stroke:#000000;stroke-width:2.64583;stroke-linecap:butt;stroke-linejoin:miter;stroke-miterlimit:4;stroke-dasharray:none;stroke-opacity:1"
           d="m -193.88348,-184.67711 -27.52737,-15.89293 m 27.52737,15.89293 -2.12925,35.47383 13.76369,7.94647 15.89293,-27.52736 z" />
        <path
           id="path24021"
           style="fill:#000000;stroke:#000000;stroke-width:2.64583;stroke-linecap:butt;stroke-linejoin:miter;stroke-miterlimit:4;stroke-dasharray:none;stroke-opacity:1"
           d="m -79.515491,-184.67711 27.527371,-15.89293 m -27.527371,15.89293 2.12924,35.47383 -13.76368,7.94647 -15.892929,-27.52737 z" />
      </g>
      <path
         id="path1481"
         style="fill:#000000;fill-opacity:1;stroke:#000000;stroke-width:0.264583;stroke-miterlimit:4;stroke-dasharray:none"
         d="m -535.92506,-161.70887 v 31.78566 31.786174 h 31.78617 v -31.786174 -31.78566 z" />
      <path
         id="path1483"
         style="fill:#000000;fill-opacity:1;stroke:#000000;stroke-width:0.264583;stroke-miterlimit:4;stroke-dasharray:none"
         d="m -535.92482,-183.14369 v 11.81446 h 31.78587 v -11.81446 z" />
      <path
         id="path1485"
         style="fill:#000000;fill-opacity:1;stroke:#000000;stroke-width:0.264583;stroke-miterlimit:4;stroke-dasharray:none"
         d="m -527.97841,-198.5081 v 9.6204 h 15.89294 v -9.6204 z" />
      <path
         id="path1487"
         style="fill:#000000;stroke:#000000;stroke-width:0.264583;stroke-linecap:round;stroke-miterlimit:4;stroke-dasharray:none;stop-color:#000000"
         d="m -521.4418,-208.33139 c 0,-0.93991 2.81972,-0.93991 2.81972,0 v 9.82329 h -2.81972 z"
         sodipodi:nodetypes="ssccs" />
      <g
         aria-label="NTROMECH"
         id="text1509"
         style="font-size:71.7464px;line-height:0;stroke-width:0.264583"
         transform="translate(-657.61335,118.96523)">
        <path
           d="m 161.79525,-216.96928 v -58.11459 h 9.04004 l 11.90991,27.9811 v -27.9811 h 10.61846 v 58.11459 h -8.68131 l -11.9099,-30.13349 v 30.13349 z"
           style="font-weight:bold;line-height:0px;font-family:oswald;-inkscape-font-specification:'oswald Bold'"
           id="path2038" />
        <path
           d="m 207.28239,-216.96928 v -48.57232 h -8.75306 v -9.54227 h 30.34872 v 9.54227 h -8.68131 v 48.57232 z"
           style="font-weight:bold;line-height:0px;font-family:oswald;-inkscape-font-specification:'oswald Bold'"
           id="path2040" />
        <path
           d="m 233.97203,-216.96928 v -58.11459 h 15.99944 q 5.88321,0 10.18799,1.29144 4.30479,1.29143 6.67242,4.66351 2.43938,3.30034 2.43938,9.39878 0,3.58732 -0.57398,6.38543 -0.57397,2.79811 -2.15239,4.87876 -1.50667,2.0089 -4.37653,3.37208 l 7.96385,28.12459 h -13.27308 l -6.38543,-26.04395 h -3.65907 v 26.04395 z m 12.8426,-33.43383 h 3.58732 q 2.72637,0 4.23304,-0.9327 1.50668,-1.00445 2.08065,-2.79811 0.64571,-1.86541 0.64571,-4.44828 0,-3.73081 -1.36318,-5.81145 -1.36318,-2.08065 -5.02225,-2.08065 h -4.16129 z"
           style="font-weight:bold;line-height:0px;font-family:oswald;-inkscape-font-specification:'oswald Bold'"
           id="path2042" />
        <path
           d="m 293.09086,-216.10833 q -6.52893,0 -10.33149,-2.29588 -3.80255,-2.29589 -5.45272,-6.60067 -1.65017,-4.30478 -1.65017,-10.25974 v -21.59566 q 0,-6.0267 1.65017,-10.25974 1.65017,-4.23303 5.45272,-6.45717 3.80256,-2.29589 10.33149,-2.29589 6.60066,0 10.40322,2.29589 3.87431,2.22414 5.52448,6.45717 1.65016,4.23304 1.65016,10.25974 v 21.59566 q 0,5.95496 -1.65016,10.25974 -1.65017,4.30478 -5.52448,6.60067 -3.80256,2.29588 -10.40322,2.29588 z m 0,-9.11179 q 2.00889,0 2.9416,-1.00445 0.9327,-1.00445 1.21969,-2.58287 0.28698,-1.57842 0.28698,-3.22859 v -27.98109 q 0,-1.72192 -0.28698,-3.22859 -0.28699,-1.57842 -1.21969,-2.58287 -0.93271,-1.00445 -2.9416,-1.00445 -1.86541,0 -2.79811,1.00445 -0.93271,1.00445 -1.21969,2.58287 -0.28699,1.50667 -0.28699,3.22859 v 27.98109 q 0,1.65017 0.21524,3.22859 0.28699,1.57842 1.14794,2.58287 0.93271,1.00445 2.94161,1.00445 z"
           style="font-weight:bold;line-height:0px;font-family:oswald;-inkscape-font-specification:'oswald Bold'"
           id="path2044" />
        <path
           d="m 318.27373,-216.96928 1.00445,-58.11459 h 13.77531 l 6.38543,33.79256 6.88766,-33.79256 h 13.27308 l 1.00445,58.11459 h -9.11179 l -1.0762,-38.67131 -6.74416,38.67131 h -8.10734 l -7.17464,-38.9583 -0.86096,38.9583 z"
           style="font-weight:bold;line-height:0px;font-family:oswald;-inkscape-font-specification:'oswald Bold'"
           id="path2046" />
        <path
           d="m 368.99834,-216.96928 v -58.11459 h 26.11569 v 8.75306 h -13.27308 v 14.42103 h 10.11624 v 8.89655 h -10.11624 v 17.36263 h 13.41657 v 8.68132 z"
           style="font-weight:bold;line-height:0px;font-family:oswald;-inkscape-font-specification:'oswald Bold'"
           id="path2048" />
        <path
           d="m 417.71405,-216.10833 q -6.60067,0 -10.47498,-2.36763 -3.80256,-2.43938 -5.38098,-6.74416 -1.57842,-4.37653 -1.57842,-10.25973 v -20.94995 q 0,-6.0267 1.57842,-10.33148 1.57842,-4.37654 5.38098,-6.74417 3.87431,-2.36763 10.47498,-2.36763 6.45717,0 10.04449,2.15239 3.65907,2.08065 5.16574,5.88321 1.50668,3.80256 1.50668,8.75306 v 5.02225 h -12.55562 v -5.81146 q 0,-1.72191 -0.21524,-3.30033 -0.14349,-1.57843 -1.00445,-2.58288 -0.86096,-1.07619 -2.9416,-1.07619 -2.0089,0 -3.01335,1.07619 -0.9327,1.0762 -1.21969,2.72637 -0.21524,1.57842 -0.21524,3.37208 v 27.33538 q 0,1.93715 0.28699,3.58732 0.35873,1.57842 1.29143,2.58287 1.00445,0.9327 2.86986,0.9327 2.0089,0 2.86985,-1.00445 0.86096,-1.0762 1.0762,-2.72636 0.21524,-1.65017 0.21524,-3.37208 v -6.09845 h 12.55562 v 5.02225 q 0,4.9505 -1.50668,8.89655 -1.43492,3.87431 -5.09399,6.17019 -3.58732,2.22414 -10.11624,2.22414 z"
           style="font-weight:bold;line-height:0px;font-family:oswald;-inkscape-font-specification:'oswald Bold'"
           id="path2050" />
        <path
           d="m 441.67733,-216.96928 v -58.11459 h 12.8426 v 23.53282 h 8.9683 v -23.53282 h 12.91435 v 58.11459 h -12.91435 v -25.39823 h -8.9683 v 25.39823 z"
           style="font-weight:bold;line-height:0px;font-family:oswald;-inkscape-font-specification:'oswald Bold'"
           id="path2052" />
      </g>
      <g
         id="g2275">
        <g
           id="path2090">
          <path
             style="color:#000000;fill:#000000;stroke-width:2.64583;-inkscape-stroke:none"
             d="M 160.56523,-287.15207 133.03786,-303.045 m 27.52737,15.89293 -2.12925,35.47383 13.76369,7.94647 15.89293,-27.52736 z"
             id="path2198" />
          <path
             style="color:#000000;fill:#000000;-inkscape-stroke:none"
             d="m 133.69922,-304.19141 -1.32227,2.29297 26.81836,15.48242 -2.1289,35.47461 15.61718,9.01758 17.2168,-29.82031 -28.67383,-16.55273 -1.85351,-1.07032 z m 28.05859,19.25586 24.52735,14.16016 -14.57032,25.23633 -11.91015,-6.87696 z"
             id="path2200" />
        </g>
        <g
           id="path2092">
          <path
             style="color:#000000;fill:#000000;stroke-width:2.64583;-inkscape-stroke:none"
             d="m 274.93321,-287.15207 27.52737,-15.89293 m -27.52737,15.89293 2.12924,35.47383 -13.76368,7.94647 -15.89293,-27.52737 z"
             id="path2204" />
          <path
             style="color:#000000;fill:#000000;-inkscape-stroke:none"
             d="m 301.79883,-304.19141 -25.67383,14.82422 -1.85352,1.07032 -28.67187,16.55273 17.21484,29.82031 15.61719,-9.01758 -2.12891,-35.47265 26.81836,-15.48438 z m -28.05664,19.25586 1.95117,32.51953 -11.91016,6.87696 -14.57031,-25.23633 z"
             id="path2206" />
        </g>
        <g
           id="path2094">
          <path
             style="color:#000000;fill:#000000;stroke-width:0.264583;-inkscape-stroke:none"
             d="m 201.85604,-241.87784 v 31.78567 31.78616 h 31.78617 v -31.78616 -31.78567 z"
             id="path2210" />
          <path
             style="color:#000000;fill:#000000;-inkscape-stroke:none"
             d="m 201.72461,-242.00977 v 0.13282 31.78515 31.91797 h 32.05078 v -31.91797 -31.91797 z m 0.26367,0.26368 h 31.52149 v 31.65429 31.6543 h -31.52149 v -31.6543 z"
             id="path2212" />
        </g>
        <g
           id="path2096">
          <path
             style="color:#000000;fill:#000000;stroke-width:0.264583;-inkscape-stroke:none"
             d="m 201.85628,-263.31266 v 11.81446 h 31.78587 v -11.81446 z"
             id="path2216" />
          <path
             style="color:#000000;fill:#000000;-inkscape-stroke:none"
             d="m 201.72461,-263.44531 v 0.13281 11.94727 h 32.05078 v -12.08008 z m 0.26367,0.26562 h 31.52149 v 11.54883 h -31.52149 z"
             id="path2218" />
        </g>
        <g
           id="path2098">
          <path
             style="color:#000000;fill:#000000;stroke-width:0.264583;-inkscape-stroke:none"
             d="m 209.80269,-278.67707 v 9.6204 h 15.89294 v -9.6204 z"
             id="path2222" />
          <path
             style="color:#000000;fill:#000000;-inkscape-stroke:none"
             d="m 209.66992,-278.80859 v 0.13086 9.7539 h 16.1582 v -9.88476 z m 0.26563,0.26367 h 15.62695 v 9.35547 h -15.62695 z"
             id="path2224" />
        </g>
        <g
           id="path2100">
          <path
             style="color:#000000;fill:#000000;stroke-width:0.264583;stroke-linecap:round;-inkscape-stroke:none"
             d="m 216.3393,-288.50036 c 0,-0.93991 2.81972,-0.93991 2.81972,0 v 9.82329 h -2.81972 z"
             id="path2228" />
          <path
             style="color:#000000;fill:#000000;stroke-linecap:round;-inkscape-stroke:none"
             d="m 217.75,-289.33789 c -0.36716,0 -0.73416,0.0589 -1.02344,0.1875 -0.14463,0.0643 -0.271,0.14621 -0.36523,0.25391 -0.0942,0.10769 -0.1543,0.24592 -0.1543,0.39648 v 9.95508 h 3.08399 V -288.5 c 0,-0.15056 -0.0601,-0.28879 -0.1543,-0.39648 -0.0942,-0.1077 -0.2206,-0.18963 -0.36524,-0.25391 -0.28927,-0.12857 -0.65432,-0.1875 -1.02148,-0.1875 z m 0,0.26562 c 0.33777,0 0.67464,0.0577 0.91406,0.16407 0.11971,0.0532 0.21347,0.11896 0.27344,0.1875 0.06,0.0685 0.0898,0.13628 0.0898,0.2207 v 9.69141 H 216.4707 V -288.5 c 0,-0.0844 0.0299,-0.15217 0.0899,-0.2207 0.06,-0.0685 0.15372,-0.1343 0.27343,-0.1875 0.23943,-0.10641 0.57825,-0.16407 0.91602,-0.16407 z"
             id="path2230" />
        </g>
        <g
           aria-label="NTROMECH"
           id="g2118"
           style="font-size:71.7464px;line-height:0;stroke-width:0.264583"
           transform="translate(80.167747,38.79626)">
          <path
             d="m 161.79525,-216.96928 v -58.11459 h 9.04004 l 11.90991,27.9811 v -27.9811 h 10.61846 v 58.11459 h -8.68131 l -11.9099,-30.13349 v 30.13349 z"
             style="font-weight:bold;line-height:0px;font-family:oswald;-inkscape-font-specification:'oswald Bold'"
             id="path2102" />
          <path
             d="m 207.28239,-216.96928 v -48.57232 h -8.75306 v -9.54227 h 30.34872 v 9.54227 h -8.68131 v 48.57232 z"
             style="font-weight:bold;line-height:0px;font-family:oswald;-inkscape-font-specification:'oswald Bold'"
             id="path2104" />
          <path
             d="m 233.97203,-216.96928 v -58.11459 h 15.99944 q 5.88321,0 10.18799,1.29144 4.30479,1.29143 6.67242,4.66351 2.43938,3.30034 2.43938,9.39878 0,3.58732 -0.57398,6.38543 -0.57397,2.79811 -2.15239,4.87876 -1.50667,2.0089 -4.37653,3.37208 l 7.96385,28.12459 h -13.27308 l -6.38543,-26.04395 h -3.65907 v 26.04395 z m 12.8426,-33.43383 h 3.58732 q 2.72637,0 4.23304,-0.9327 1.50668,-1.00445 2.08065,-2.79811 0.64571,-1.86541 0.64571,-4.44828 0,-3.73081 -1.36318,-5.81145 -1.36318,-2.08065 -5.02225,-2.08065 h -4.16129 z"
             style="font-weight:bold;line-height:0px;font-family:oswald;-inkscape-font-specification:'oswald Bold'"
             id="path2106" />
          <path
             d="m 293.09086,-216.10833 q -6.52893,0 -10.33149,-2.29588 -3.80255,-2.29589 -5.45272,-6.60067 -1.65017,-4.30478 -1.65017,-10.25974 v -21.59566 q 0,-6.0267 1.65017,-10.25974 1.65017,-4.23303 5.45272,-6.45717 3.80256,-2.29589 10.33149,-2.29589 6.60066,0 10.40322,2.29589 3.87431,2.22414 5.52448,6.45717 1.65016,4.23304 1.65016,10.25974 v 21.59566 q 0,5.95496 -1.65016,10.25974 -1.65017,4.30478 -5.52448,6.60067 -3.80256,2.29588 -10.40322,2.29588 z m 0,-9.11179 q 2.00889,0 2.9416,-1.00445 0.9327,-1.00445 1.21969,-2.58287 0.28698,-1.57842 0.28698,-3.22859 v -27.98109 q 0,-1.72192 -0.28698,-3.22859 -0.28699,-1.57842 -1.21969,-2.58287 -0.93271,-1.00445 -2.9416,-1.00445 -1.86541,0 -2.79811,1.00445 -0.93271,1.00445 -1.21969,2.58287 -0.28699,1.50667 -0.28699,3.22859 v 27.98109 q 0,1.65017 0.21524,3.22859 0.28699,1.57842 1.14794,2.58287 0.93271,1.00445 2.94161,1.00445 z"
             style="font-weight:bold;line-height:0px;font-family:oswald;-inkscape-font-specification:'oswald Bold'"
             id="path2108" />
          <path
             d="m 318.27373,-216.96928 1.00445,-58.11459 h 13.77531 l 6.38543,33.79256 6.88766,-33.79256 h 13.27308 l 1.00445,58.11459 h -9.11179 l -1.0762,-38.67131 -6.74416,38.67131 h -8.10734 l -7.17464,-38.9583 -0.86096,38.9583 z"
             style="font-weight:bold;line-height:0px;font-family:oswald;-inkscape-font-specification:'oswald Bold'"
             id="path2110" />
          <path
             d="m 368.99834,-216.96928 v -58.11459 h 26.11569 v 8.75306 h -13.27308 v 14.42103 h 10.11624 v 8.89655 h -10.11624 v 17.36263 h 13.41657 v 8.68132 z"
             style="font-weight:bold;line-height:0px;font-family:oswald;-inkscape-font-specification:'oswald Bold'"
             id="path2112" />
          <path
             d="m 417.71405,-216.10833 q -6.60067,0 -10.47498,-2.36763 -3.80256,-2.43938 -5.38098,-6.74416 -1.57842,-4.37653 -1.57842,-10.25973 v -20.94995 q 0,-6.0267 1.57842,-10.33148 1.57842,-4.37654 5.38098,-6.74417 3.87431,-2.36763 10.47498,-2.36763 6.45717,0 10.04449,2.15239 3.65907,2.08065 5.16574,5.88321 1.50668,3.80256 1.50668,8.75306 v 5.02225 h -12.55562 v -5.81146 q 0,-1.72191 -0.21524,-3.30033 -0.14349,-1.57843 -1.00445,-2.58288 -0.86096,-1.07619 -2.9416,-1.07619 -2.0089,0 -3.01335,1.07619 -0.9327,1.0762 -1.21969,2.72637 -0.21524,1.57842 -0.21524,3.37208 v 27.33538 q 0,1.93715 0.28699,3.58732 0.35873,1.57842 1.29143,2.58287 1.00445,0.9327 2.86986,0.9327 2.0089,0 2.86985,-1.00445 0.86096,-1.0762 1.0762,-2.72636 0.21524,-1.65017 0.21524,-3.37208 v -6.09845 h 12.55562 v 5.02225 q 0,4.9505 -1.50668,8.89655 -1.43492,3.87431 -5.09399,6.17019 -3.58732,2.22414 -10.11624,2.22414 z"
             style="font-weight:bold;line-height:0px;font-family:oswald;-inkscape-font-specification:'oswald Bold'"
             id="path2114" />
          <path
             d="m 441.67733,-216.96928 v -58.11459 h 12.8426 v 23.53282 h 8.9683 v -23.53282 h 12.91435 v 58.11459 h -12.91435 v -25.39823 h -8.9683 v 25.39823 z"
             style="font-weight:bold;line-height:0px;font-family:oswald;-inkscape-font-specification:'oswald Bold'"
             id="path2116" />
        </g>
      </g>
      <g
         id="g992"
         transform="translate(199.78766,-537.4405)">
        <g
           id="path926">
          <path
             style="color:#000000;fill:#000000;stroke-width:2.64583;-inkscape-stroke:none"
             d="m -575.56359,-35.144433 -27.52737,-15.89293 m 27.52737,15.89293 -2.12925,35.47383044 13.76369,7.94646996 15.89293,-27.5273604 z"
             id="path940" />
          <path
             style="color:#000000;fill:#000000;-inkscape-stroke:none"
             d="m -602.42969,-52.183594 -1.32226,2.291016 26.81836,15.484375 -2.12891,35.4746092 15.61719,9.0156248 17.21679,-29.818359 -28.67382,-16.554688 -1.85352,-1.070312 z m 28.0586,19.25586 24.52734,14.160156 -14.57031,25.236328 -11.91016,-6.87695313 z"
             id="path942" />
        </g>
        <g
           id="path928">
          <path
             style="color:#000000;fill:#000000;stroke-width:2.64583;-inkscape-stroke:none"
             d="m -461.1956,-35.144433 27.52737,-15.89293 m -27.52737,15.89293 2.12924,35.47383044 -13.76368,7.94646996 -15.89293,-27.5273704 z"
             id="path946" />
          <path
             style="color:#000000;fill:#000000;-inkscape-stroke:none"
             d="m -434.33008,-52.183594 -25.67383,14.822266 -1.85351,1.070312 -28.67188,16.554688 17.21485,29.818359 15.61718,-9.0156248 -2.1289,-35.4726562 26.82031,-15.486328 z m -28.05664,19.25586 1.95117,32.51953087 -11.91015,6.87695313 -14.57032,-25.236328 z"
             id="path948" />
        </g>
        <g
           id="path930">
          <path
             style="color:#000000;fill:#000000;stroke-width:0.264583;-inkscape-stroke:none"
             d="m -534.27277,10.129797 v 31.78566 31.786174 h 31.78617 V 41.915457 10.129797 Z"
             id="path952" />
          <path
             style="color:#000000;fill:#000000;-inkscape-stroke:none"
             d="m -534.4043,9.9980469 v 0.1308591 31.78711 31.917968 h 32.05078 V 41.916016 9.9980469 Z m 0.26368,0.2636721 h 31.52148 v 31.654297 31.654296 h -31.52148 V 41.916016 Z"
             id="path954" />
        </g>
        <g
           id="path932">
          <path
             style="color:#000000;fill:#000000;stroke-width:0.264583;-inkscape-stroke:none"
             d="M -534.27253,-11.305023 V 0.50943744 h 31.78587 V -11.305023 Z"
             id="path958" />
          <path
             style="color:#000000;fill:#000000;-inkscape-stroke:none"
             d="m -534.4043,-11.4375 v 0.132812 11.94726612 h 32.05078 V -11.4375 Z m 0.26368,0.265625 h 31.52148 V 0.37695313 h -31.52148 z"
             id="path960" />
        </g>
        <g
           id="path934">
          <path
             style="color:#000000;fill:#000000;stroke-width:0.264583;-inkscape-stroke:none"
             d="m -526.32612,-26.669433 v 9.6204 h 15.89294 v -9.6204 z"
             id="path964" />
          <path
             style="color:#000000;fill:#000000;-inkscape-stroke:none"
             d="m -526.45898,-26.800781 v 0.130859 9.753906 h 16.1582 v -9.884765 z m 0.26562,0.263672 h 15.62695 v 9.355468 h -15.62695 z"
             id="path966" />
        </g>
        <g
           id="path936">
          <path
             style="color:#000000;fill:#000000;stroke-width:0.264583;stroke-linecap:round;-inkscape-stroke:none"
             d="m -519.78951,-36.492723 c 0,-0.93991 2.81972,-0.93991 2.81972,0 v 9.82329 h -2.81972 z"
             id="path970" />
          <path
             style="color:#000000;fill:#000000;stroke-linecap:round;-inkscape-stroke:none"
             d="m -518.37891,-37.330078 c -0.36716,0 -0.73416,0.05893 -1.02343,0.1875 -0.14464,0.06428 -0.271,0.146211 -0.36524,0.253906 -0.0942,0.107696 -0.15429,0.245923 -0.15429,0.396485 v 9.955078 h 3.08398 v -9.955078 c 0,-0.150562 -0.0601,-0.288789 -0.1543,-0.396485 -0.0942,-0.107695 -0.22059,-0.189623 -0.36523,-0.253906 -0.28928,-0.128567 -0.65432,-0.1875 -1.02149,-0.1875 z m 0,0.265625 c 0.33777,0 0.67464,0.05765 0.91407,0.164062 0.11971,0.05321 0.21346,0.11701 0.27343,0.185547 0.06,0.06854 0.0899,0.138241 0.0899,0.222657 v 9.691406 h -2.55469 v -9.691406 c 0,-0.08442 0.0279,-0.154119 0.0879,-0.222657 0.06,-0.06854 0.15373,-0.132341 0.27344,-0.185547 0.23942,-0.10641 0.57825,-0.164062 0.91601,-0.164062 z"
             id="path972" />
        </g>
      </g>
    </g>
    <g
       id="g8197"
       transform="translate(-160.65776,177.30554)">
      <path
         id="path8173"
         style="fill:#000000;fill-opacity:1;stroke:#000000;stroke-width:0.264583;stroke-miterlimit:4;stroke-dasharray:none"
         d="m 8.065098,116.10174 v 31.78566 31.78617 H 39.851269 V 147.8874 116.10174 Z" />
      <path
         id="path8175"
         style="fill:#000000;fill-opacity:1;stroke:#000000;stroke-width:0.264583;stroke-miterlimit:4;stroke-dasharray:none"
         d="M 8.065336,94.666916 V 106.48138 H 39.851209 V 94.666916 Z" />
      <path
         id="path8177"
         style="fill:#000000;fill-opacity:1;stroke:#000000;stroke-width:0.264583;stroke-miterlimit:4;stroke-dasharray:none"
         d="m 16.01175,79.302505 v 9.620401 h 15.892939 v -9.620401 z" />
      <path
         id="path8179"
         style="fill:#000000;stroke:#000000;stroke-width:0.264583;stroke-linecap:round;stroke-miterlimit:4;stroke-dasharray:none;stop-color:#000000"
         d="m 22.548359,69.479216 c 0,-0.939905 2.81972,-0.939905 2.81972,0 v 9.823292 h -2.81972 z"
         sodipodi:nodetypes="ssccs" />
      <path
         id="path8181"
         style="fill:#000000;stroke:#000000;stroke-width:0.264583px;stroke-linecap:butt;stroke-linejoin:miter;stroke-opacity:1"
         d="M -33.225721,70.827512 -60.753089,54.934579 m 27.527368,15.892933 -2.129247,35.473828 13.763685,7.94647 15.892928,-27.527364 z" />
      <path
         id="path8183"
         style="fill:#000000;stroke:#000000;stroke-width:0.264583px;stroke-linecap:butt;stroke-linejoin:miter;stroke-opacity:1"
         d="M 81.142269,70.827512 108.66964,54.934576 m -27.527371,15.892936 2.12924,35.473828 -13.76368,7.94647 -15.89293,-27.527367 z" />
      <path
         id="path8185"
         style="fill:#000000;fill-opacity:1;stroke:#000000;stroke-width:0.264583;stroke-miterlimit:4;stroke-dasharray:none"
         d="m 8.065098,116.10174 v 31.78566 31.78617 H 39.851269 V 147.8874 116.10174 Z" />
      <path
         id="path8187"
         style="fill:#000000;fill-opacity:1;stroke:#000000;stroke-width:0.264583;stroke-miterlimit:4;stroke-dasharray:none"
         d="M 8.065336,94.666916 V 106.48138 H 39.851209 V 94.666916 Z" />
      <path
         id="path8189"
         style="fill:#000000;fill-opacity:1;stroke:#000000;stroke-width:0.264583;stroke-miterlimit:4;stroke-dasharray:none"
         d="m 16.01175,79.302505 v 9.620401 h 15.892939 v -9.620401 z" />
      <path
         id="path8191"
         style="fill:#000000;stroke:#000000;stroke-width:0.264583;stroke-linecap:round;stroke-miterlimit:4;stroke-dasharray:none;stop-color:#000000"
         d="m 22.548359,69.479216 c 0,-0.939905 2.81972,-0.939905 2.81972,0 v 9.823292 h -2.81972 z"
         sodipodi:nodetypes="ssccs" />
      <path
         id="path8193"
         style="fill:#000000;stroke:#000000;stroke-width:0.264583px;stroke-linecap:butt;stroke-linejoin:miter;stroke-opacity:1"
         d="M -33.225721,70.827512 -60.753089,54.934579 m 27.527368,15.892933 -2.129247,35.473828 13.763685,7.94647 15.892928,-27.527364 z" />
      <path
         id="path8195"
         style="fill:#000000;stroke:#000000;stroke-width:0.264583px;stroke-linecap:butt;stroke-linejoin:miter;stroke-opacity:1"
         d="M 81.142269,70.827512 108.66964,54.934576 m -27.527371,15.892936 2.12924,35.473828 -13.76368,7.94647 -15.89293,-27.527367 z" />
    </g>
    <text
       xml:space="preserve"
       style="font-style:normal;font-weight:normal;font-size:71.7464px;line-height:1.25;font-family:sans-serif;fill:#000000;fill-opacity:1;stroke:none;stroke-width:0.264583"
       x="-107.47157"
       y="356.02539"
       id="text8201"><tspan
         sodipodi:role="line"
         id="tspan8199"
         style="font-style:normal;font-variant:normal;font-weight:bold;font-stretch:normal;font-family:op;-inkscape-font-specification:'op Bold';stroke-width:0.264583"
         x="-107.47157"
         y="356.02539">INTROMECH</tspan></text>
  </g>
</svg>
