<?xml version="1.0" encoding="UTF-8" standalone="no"?>
<!-- Created with Inkscape (http://www.inkscape.org/) -->

<svg
   width="400"
   height="400"
   viewBox="0 0 400 400"
   version="1.1"
   id="svg5"
   inkscape:version="1.1.1 (3bf5ae0d25, 2021-09-20)"
   sodipodi:docname="logo_single_svg.svg"
   xmlns:inkscape="http://www.inkscape.org/namespaces/inkscape"
   xmlns:sodipodi="http://sodipodi.sourceforge.net/DTD/sodipodi-0.dtd"
   xmlns="http://www.w3.org/2000/svg"
   xmlns:svg="http://www.w3.org/2000/svg">
  <sodipodi:namedview
     id="namedview7"
     pagecolor="#ffffff"
     bordercolor="#666666"
     borderopacity="1.0"
     inkscape:pageshadow="2"
     inkscape:pageopacity="0.0"
     inkscape:pagecheckerboard="0"
     inkscape:document-units="px"
     showgrid="false"
     inkscape:zoom="1.2710244"
     inkscape:cx="189.21745"
     inkscape:cy="226.19549"
     inkscape:window-width="1920"
     inkscape:window-height="1017"
     inkscape:window-x="-8"
     inkscape:window-y="-8"
     inkscape:window-maximized="1"
     inkscape:current-layer="layer1" />
  <defs
     id="defs2" />
  <g
     inkscape:label="Layer 1"
     inkscape:groupmode="layer"
     id="layer1">
    <g
       id="g992"
       transform="matrix(2.2889694,0,0,2.2889694,1386.5535,175.22146)"
       style="stroke-width:1.6512"
       inkscape:export-filename="F:\misbah\projects\intromech_brand\logos\logo_single_png.png"
       inkscape:export-xdpi="96"
       inkscape:export-ydpi="96">
      <g
         id="path926"
         style="stroke-width:1.6512">
        <path
           style="color:#000000;fill:#000000;stroke-width:4.36877;-inkscape-stroke:none"
           d="m -575.56359,-35.144433 -27.52737,-15.89293 m 27.52737,15.89293 -2.12925,35.47383044 13.76369,7.94646996 15.89293,-27.5273604 z"
           id="path940" />
        <path
           style="color:#000000;fill:#000000;stroke-width:1.6512;-inkscape-stroke:none"
           d="m -602.42969,-52.183594 -1.32226,2.291016 26.81836,15.484375 -2.12891,35.4746092 15.61719,9.0156248 17.21679,-29.818359 -28.67382,-16.554688 -1.85352,-1.070312 z m 28.0586,19.25586 24.52734,14.160156 -14.57031,25.236328 -11.91016,-6.87695313 z"
           id="path942" />
      </g>
      <g
         id="path928"
         style="stroke-width:1.6512">
        <path
           style="color:#000000;fill:#000000;stroke-width:4.36877;-inkscape-stroke:none"
           d="m -461.1956,-35.144433 27.52737,-15.89293 m -27.52737,15.89293 2.12924,35.47383044 -13.76368,7.94646996 -15.89293,-27.5273704 z"
           id="path946" />
        <path
           style="color:#000000;fill:#000000;stroke-width:1.6512;-inkscape-stroke:none"
           d="m -434.33008,-52.183594 -25.67383,14.822266 -1.85351,1.070312 -28.67188,16.554688 17.21485,29.818359 15.61718,-9.0156248 -2.1289,-35.4726562 26.82031,-15.486328 z m -28.05664,19.25586 1.95117,32.51953087 -11.91015,6.87695313 -14.57032,-25.236328 z"
           id="path948" />
      </g>
      <g
         id="path930"
         style="stroke-width:1.6512">
        <path
           style="color:#000000;fill:#000000;stroke-width:0.436877;-inkscape-stroke:none"
           d="m -534.27277,10.129797 v 31.78566 31.786174 h 31.78617 V 41.915457 10.129797 Z"
           id="path952" />
        <path
           style="color:#000000;fill:#000000;stroke-width:1.6512;-inkscape-stroke:none"
           d="m -534.4043,9.9980469 v 0.1308591 31.78711 31.917968 h 32.05078 V 41.916016 9.9980469 Z m 0.26368,0.2636721 h 31.52148 v 31.654297 31.654296 h -31.52148 V 41.916016 Z"
           id="path954" />
      </g>
      <g
         id="path932"
         style="stroke-width:1.6512">
        <path
           style="color:#000000;fill:#000000;stroke-width:0.436877;-inkscape-stroke:none"
           d="M -534.27253,-11.305023 V 0.50943744 h 31.78587 V -11.305023 Z"
           id="path958" />
        <path
           style="color:#000000;fill:#000000;stroke-width:1.6512;-inkscape-stroke:none"
           d="m -534.4043,-11.4375 v 0.132812 11.94726612 h 32.05078 V -11.4375 Z m 0.26368,0.265625 h 31.52148 V 0.37695313 h -31.52148 z"
           id="path960" />
      </g>
      <g
         id="path934"
         style="stroke-width:1.6512">
        <path
           style="color:#000000;fill:#000000;stroke-width:0.436877;-inkscape-stroke:none"
           d="m -526.32612,-26.669433 v 9.6204 h 15.89294 v -9.6204 z"
           id="path964" />
        <path
           style="color:#000000;fill:#000000;stroke-width:1.6512;-inkscape-stroke:none"
           d="m -526.45898,-26.800781 v 0.130859 9.753906 h 16.1582 v -9.884765 z m 0.26562,0.263672 h 15.62695 v 9.355468 h -15.62695 z"
           id="path966" />
      </g>
      <g
         id="path936"
         style="stroke-width:1.6512">
        <path
           style="color:#000000;fill:#000000;stroke-width:0.436877;stroke-linecap:round;-inkscape-stroke:none"
           d="m -519.78951,-36.492723 c 0,-0.93991 2.81972,-0.93991 2.81972,0 v 9.82329 h -2.81972 z"
           id="path970" />
        <path
           style="color:#000000;fill:#000000;stroke-width:1.6512;stroke-linecap:round;-inkscape-stroke:none"
           d="m -518.37891,-37.330078 c -0.36716,0 -0.73416,0.05893 -1.02343,0.1875 -0.14464,0.06428 -0.271,0.146211 -0.36524,0.253906 -0.0942,0.107696 -0.15429,0.245923 -0.15429,0.396485 v 9.955078 h 3.08398 v -9.955078 c 0,-0.150562 -0.0601,-0.288789 -0.1543,-0.396485 -0.0942,-0.107695 -0.22059,-0.189623 -0.36523,-0.253906 -0.28928,-0.128567 -0.65432,-0.1875 -1.02149,-0.1875 z m 0,0.265625 c 0.33777,0 0.67464,0.05765 0.91407,0.164062 0.11971,0.05321 0.21346,0.11701 0.27343,0.185547 0.06,0.06854 0.0899,0.138241 0.0899,0.222657 v 9.691406 h -2.55469 v -9.691406 c 0,-0.08442 0.0279,-0.154119 0.0879,-0.222657 0.06,-0.06854 0.15373,-0.132341 0.27344,-0.185547 0.23942,-0.10641 0.57825,-0.164062 0.91601,-0.164062 z"
           id="path972" />
      </g>
    </g>
  </g>
</svg>
