<?xml version="1.0" encoding="UTF-8"?>
<!-- Created with Inkscape (http://www.inkscape.org/) -->
<svg width="400" height="400" version="1.1" viewBox="0 0 400 400" xmlns="http://www.w3.org/2000/svg">
 <g transform="matrix(2.289 0 0 2.289 1386.6 175.22)" stroke-width="1.6512">
  <g>
   <path d="m-575.56-35.144-27.527-15.893m27.527 15.893-2.1292 35.474 13.764 7.9465 15.893-27.527z" color="#000000" stroke-width="4.3688" style="-inkscape-stroke:none"/>
   <path d="m-602.43-52.184-1.3223 2.291 26.818 15.484-2.1289 35.475 15.617 9.0156 17.217-29.818-28.674-16.555-1.8535-1.0703zm28.059 19.256 24.527 14.16-14.57 25.236-11.91-6.877z" color="#000000" stroke-width="1.6512" style="-inkscape-stroke:none"/>
   <path d="m-461.2-35.144 27.527-15.893m-27.527 15.893 2.1292 35.474-13.764 7.9465-15.893-27.527z" color="#000000" stroke-width="4.3688" style="-inkscape-stroke:none"/>
   <path d="m-434.33-52.184-25.674 14.822-1.8535 1.0703-28.672 16.555 17.215 29.818 15.617-9.0156-2.1289-35.473 26.82-15.486zm-28.057 19.256 1.9512 32.52-11.91 6.877-14.57-25.236z" color="#000000" stroke-width="1.6512" style="-inkscape-stroke:none"/>
   <path d="m-534.27 10.13v63.572h31.786v-63.572z" color="#000000" stroke-width=".43688" style="-inkscape-stroke:none"/>
   <path d="m-534.4 9.998v63.836h32.051v-63.836zm0.26368 0.26367h31.521v63.309h-31.521v-31.654z" color="#000000" stroke-width="1.6512" style="-inkscape-stroke:none"/>
   <path d="m-534.27-11.305v11.814h31.786v-11.814z" color="#000000" stroke-width=".43688" style="-inkscape-stroke:none"/>
   <path d="m-534.4-11.438v12.08h32.051v-12.08zm0.26368 0.26562h31.521v11.549h-31.521z" color="#000000" stroke-width="1.6512" style="-inkscape-stroke:none"/>
   <path d="m-526.33-26.669v9.6204h15.893v-9.6204z" color="#000000" stroke-width=".43688" style="-inkscape-stroke:none"/>
   <path d="m-526.46-26.801v9.8848h16.158v-9.8848zm0.26562 0.26367h15.627v9.3555h-15.627z" color="#000000" stroke-width="1.6512" style="-inkscape-stroke:none"/>
   <path d="m-519.79-36.493c0-0.93991 2.8197-0.93991 2.8197 0v9.8233h-2.8197z" color="#000000" stroke-linecap="round" stroke-width=".43688" style="-inkscape-stroke:none"/>
   <path d="m-518.38-37.33c-0.36716 0-0.73416 0.05893-1.0234 0.1875-0.14464 0.06428-0.271 0.14621-0.36524 0.25391-0.0942 0.1077-0.15429 0.24592-0.15429 0.39648v9.9551h3.084v-9.9551c0-0.15056-0.0601-0.28879-0.1543-0.39648-0.0942-0.1077-0.22059-0.18962-0.36523-0.25391-0.28928-0.12857-0.65432-0.1875-1.0215-0.1875zm0 0.26562c0.33777 0 0.67464 0.05765 0.91407 0.16406 0.11971 0.05321 0.21346 0.11701 0.27343 0.18555 0.06 0.06854 0.0899 0.13824 0.0899 0.22266v9.6914h-2.5547v-9.6914c0-0.08442 0.0279-0.15412 0.0879-0.22266 0.06-0.06854 0.15373-0.13234 0.27344-0.18555 0.23942-0.10641 0.57825-0.16406 0.91601-0.16406z" color="#000000" stroke-linecap="round" stroke-width="1.6512" style="-inkscape-stroke:none"/>
  </g>
 </g>
</svg>
